<svg xmlns="http://www.w3.org/2000/svg" viewBox="0 0 337.17 337.17"><defs><style>.cls-1{stroke:#fff;stroke-miterlimit:10;stroke-width:7px;}.cls-2,.cls-3{fill:#fff;}.cls-3{font-size:24.32px;font-family:Poppins-ExtraBold, Poppins;font-weight:800;}</style></defs><g id="Layer_2" data-name="Layer 2"><g id="Layer_1-2" data-name="Layer 1"><rect class="cls-1" x="3.5" y="3.5" width="330.17" height="330.17" rx="165.08"/><path class="cls-2" d="M115.27,238.84h35.32V104.64H115.27Zm5.66-125.72h24v3.44h-24Zm0,8.24h24v3.44h-24Zm0,105.57h24v3.44h-24Z"/><path class="cls-2" d="M73,239h35.32V104.8H73Zm5.65-125.71h24v3.44h-24Zm0,8.24h24V125h-24Zm0,105.57h24v3.44h-24Z"/><path class="cls-2" d="M157.51,104.64v134.2h35.32V104.64Zm29.65,125.73h-24v-3.44h24Zm0-105.57h-24v-3.43h24Zm0-8.24h-24v-3.44h24Z"/><path class="cls-2" d="M223.4,105l-30.57,17.67,67.09,116.21,30.58-17.67ZM202,127.13l20.78-12,1.73,3-20.79,12Zm24.91-4.87,1.71,3-20.77,12m51.06,88.46,20.79-12,1.71,3-20.78,12Z"/><text class="cls-3" transform="translate(71.42 94.81)">IOE</text><text class="cls-3" transform="translate(156.11 267.12)">DRIVE</text></g></g></svg>