<svg xmlns="http://www.w3.org/2000/svg" viewBox="0 0 219.08 208.08"><defs><style>.cls-1,.cls-2{fill:#fff;}.cls-2{font-size:24.32px;font-family:Poppins-ExtraBold, Poppins;font-weight:800;}</style></defs><g id="Layer_2" data-name="Layer 2"><g id="Layer_1-2" data-name="Layer 1"><path class="cls-1" d="M43.85,164.81H79.17V30.61H43.85ZM49.51,39.1h24v3.43h-24Zm0,8.24h24v3.43h-24Zm0,105.56h24v3.44h-24Z"/><path class="cls-1" d="M1.62,165H36.93V30.77H1.62ZM7.27,39.25h24v3.44h-24Zm0,8.24h24v3.44h-24Zm0,105.57h24v3.44h-24Z"/><path class="cls-1" d="M86.09,30.61v134.2h35.32V30.61Zm29.65,125.73h-24V152.9h24Zm0-105.57h-24V47.34h24Zm0-8.24h-24V39.1h24Z"/><path class="cls-1" d="M152,30.93,121.41,48.6,188.5,164.81l30.58-17.67ZM130.54,53.1l20.78-12,1.72,3-20.78,12Zm24.9-4.87,1.72,3-20.77,12m51.06,88.46,20.78-12,1.72,3-20.79,12Z"/><text class="cls-2" transform="translate(0 20.78)">IOE</text><text class="cls-2" transform="translate(84.69 193.09)">DRIVE</text></g></g></svg>